<?xml version="1.0" encoding="utf-8" ?><svg xmlns="http://www.w3.org/2000/svg" xmlns:xlink="http://www.w3.org/1999/xlink" width="2000" height="2000" viewBox="0 0 2000 2000"><path transform="matrix(4 0 0 4 0 0.00012207)" d="M241.775 0L257.92 0C260.65 0.67728 264.394 0.658251 267.257 0.779595C270.388 0.913518 273.515 1.12341 276.635 1.40909C285.876 2.25724 296.612 4.35674 305.674 6.43958C371.373 21.5405 425.515 61.0409 461.769 117.655C477.725 142.865 488.918 170.79 494.793 200.041C496.573 208.913 497.882 217.209 498.839 226.23C499.343 230.984 498.688 240.564 500 244.648L500 256.907C498.66 262.06 499.313 269.996 498.66 275.516C497.476 285.532 495.992 295.241 493.729 305.073C478.659 371.136 437.514 428.297 379.65 463.557C354.938 478.65 327.751 489.257 299.347 494.886C290.248 496.672 281.493 498.05 272.246 498.965C267.962 499.39 260.797 498.975 256.956 500L241.582 500C238.274 499.028 234.725 499.409 231.337 499.175C192.997 496.518 152.428 483.724 119.902 463.29C106.631 455.098 94.1097 445.749 82.4853 435.351C44.8845 401.314 18.493 356.672 6.79689 307.322C4.57876 297.769 2.4337 286.566 1.50779 276.792C1.1634 272.766 0.892829 268.735 0.69621 264.699C0.572808 262.523 0.534477 259.442 0 257.375L0 239.306C1.13702 235.825 0.882368 227.973 1.33719 223.923C2.26709 215.642 3.55061 208.148 5.17319 200.024C10.8746 171.858 21.433 144.899 36.3761 120.353C71.5427 62.7442 128.387 21.6865 194.13 6.4105C206.834 3.43732 220.195 1.3349 233.22 0.787524C235.949 0.67283 239.149 0.702717 241.775 0Z"/><path fill="white" transform="matrix(4 0 0 4 0 0.00012207)" d="M243.339 3.79857C379.259 0.136718 492.432 107.314 496.167 243.232C499.902 379.15 392.786 492.381 256.87 496.189C120.85 500 7.51461 392.784 3.7768 256.763C0.0389903 120.741 107.316 7.46321 243.339 3.79857Z"/><path fill="#B37C56" transform="matrix(4 0 0 4 0 0.00012207)" d="M185.06 125.129C187.551 121.442 193.684 116.665 197.131 113.379C199.225 111.383 206.061 104.523 207.985 103.358C211.124 101.457 223.057 99.0993 227.024 98.5376C233.694 97.5932 241.876 95.0797 248.309 94.5578C254.058 94.0915 264.567 97.1679 270.56 98.0579C275.314 98.9279 280.08 99.7522 284.841 100.578C286.76 100.911 289.064 102.231 291.021 102.483L292.139 103.414C296.12 106.937 299.938 110.698 303.832 114.326C307.343 117.597 311.789 121.044 314.667 124.839C317.774 130.209 317.896 133.909 320.208 139.287C324.481 136.945 333.877 131.683 338.384 130.516C342.51 132.061 353.184 136.701 354.664 140.638C356.771 146.243 359.92 154.588 361.154 160.309L361.381 161.316C361.996 164.595 357.336 175.325 356.04 179.075C354.333 184.016 352.766 189.836 350.154 194.365C348.524 196.993 337.627 202.546 334.718 203.596C334.824 211.198 337.254 216.639 337.419 222.472C335.096 226.82 331.268 231.675 328.407 235.736C326.152 238.937 324.069 242.247 321.847 245.43C331.315 250.367 348.732 260.431 358.092 266.692C360.622 268.384 366.187 284.813 368.105 287.836C372.772 297.974 376.573 307.269 381.323 317.304C383.107 321.17 384.583 325.634 386.428 329.434C387.422 332.339 378.831 342.391 376.778 345.061C360.862 365.758 341.425 379.952 318.551 392.177C307.602 397.805 295.046 401.646 283.001 404.016C255.916 409.604 227.849 408.112 201.51 399.685C199.091 398.908 188.602 395.372 186.789 394.416C158.828 382.794 128.541 356.578 113.108 330.627L114.16 328.328C115.211 325.759 116.089 323.126 117.178 320.57C119.121 316.007 121.364 311.568 123.372 307.032C126.145 300.768 139.334 269.279 141.852 266.689C144.759 263.698 151.831 260.554 155.605 258.376C163.118 254.041 170.239 249.351 178.134 245.675C173.489 237.737 167.592 230.631 162.9 222.776C162.598 222.272 162.668 221.061 162.692 220.48C162.75 217.626 164.904 208.776 165.398 204.447C165.375 204.269 165.177 203.731 165.129 203.702C161.39 201.232 154.118 199.114 151.063 195.993C147.34 191.177 145.618 184.024 143.608 178.35C141.782 173.193 137.555 164.813 139.082 159.65C139.925 155.15 143.771 143.713 145.803 139.463C147.021 136.915 158.691 131.286 161.768 130.677C167.022 131.843 174.449 136.959 179.939 138.944C181.866 133.905 182.658 130.245 185.06 125.129Z"/><path fill="#C79770" transform="matrix(4 0 0 4 0 0.00012207)" d="M249.845 165.847L250.604 165.592L250.239 166.233C252.515 166.823 257.045 171.215 259.036 172.938C256.592 174.895 251.547 177.579 250.017 180.043L249.71 179.915L249.137 179.007C245.549 176.263 244.416 174.91 240.283 172.572C243.129 171.192 246.636 167.769 249.845 165.847Z"/><path fill="#DBB085" transform="matrix(4 0 0 4 0 0.00012207)" d="M249.845 165.847L250.604 165.592L250.239 166.233C249.151 167.493 250.39 175.192 249.137 179.007C245.549 176.263 244.416 174.91 240.283 172.572C243.129 171.192 246.636 167.769 249.845 165.847Z"/><defs><linearGradient id="gradient_0" gradientUnits="userSpaceOnUse" x1="310.83698" y1="284.1113" x2="220.11809" y2="416.44016"><stop offset="0" stop-color="#763B29"/><stop offset="1" stop-color="#945D37"/></linearGradient></defs><path fill="url(#gradient_0)" transform="matrix(4 0 0 4 0 0.00012207)" d="M306.087 268.008C307.208 266.398 308.368 264.789 309.545 263.218C313.241 258.285 316.351 252.817 320.002 247.863C319.899 253.221 320.923 261.814 321.204 267.46C321.353 270.456 321.725 284.407 322.215 286.271C323.093 287.294 323.362 287.676 324.526 288.397C328.708 291.955 332.682 293.5 336.714 296.534C344.518 302.406 352.012 307.452 360.303 312.59C368.396 317.606 376.889 325.793 385.761 329.531L386.428 329.434C387.422 332.339 378.831 342.391 376.778 345.061C360.862 365.758 341.425 379.952 318.551 392.177C307.602 397.805 295.046 401.646 283.001 404.016C255.916 409.604 227.849 408.112 201.51 399.685C199.091 398.908 188.602 395.372 186.789 394.416L187.123 393.999C187.185 393.354 187.027 392.597 186.706 392.036C182.266 384.292 175.763 377.684 171.406 369.901C173.074 367.589 178.699 362.374 181.022 360.067L200.478 340.655C205.634 335.481 215.523 324.133 220.714 320.241L220.997 320.319C225.752 316.634 232.335 313.761 237.731 310.939C241.314 309.065 246.08 306.152 249.745 304.678C250.897 305.456 252.095 305.8 253.322 306.398C261.006 310.141 268.907 313.773 275.944 318.658C276.733 319.205 278.073 320.29 278.979 320.29C279.202 319.455 281.585 316.356 282.312 315.287C288.228 311.799 293.925 306.549 299.873 302.863C301.631 301.773 304.028 299.498 305.785 298.151C310.511 294.525 315.35 290.939 319.953 287.164C315.161 280.803 310.078 274.919 306.087 268.008Z"/><path fill="#562D22" transform="matrix(4 0 0 4 0 0.00012207)" d="M306.087 268.008C307.208 266.398 308.368 264.789 309.545 263.218C313.241 258.285 316.351 252.817 320.002 247.863C319.899 253.221 320.923 261.814 321.204 267.46C321.353 270.456 321.725 284.407 322.215 286.271C323.093 287.294 323.362 287.676 324.526 288.397C328.708 291.955 332.682 293.5 336.714 296.534C344.518 302.406 352.012 307.452 360.303 312.59C368.396 317.606 376.889 325.793 385.761 329.531L386.428 329.434C387.422 332.339 378.831 342.391 376.778 345.061C360.862 365.758 341.425 379.952 318.551 392.177C318.311 391.756 318.024 391.268 318.12 390.764C318.91 386.612 331.27 373.115 331.414 369.831C331.454 360.62 329.722 351.539 328.888 342.372C327.509 327.213 326.303 311.943 324.436 296.837C324.2 294.933 322.534 292.31 321.543 290.676C314.269 294.009 307.516 301.439 300.577 305.914C294.153 310.056 287.877 315.812 281.45 320.098C280.77 320.551 279.825 320.687 279.04 320.785L278.979 320.29C279.202 319.455 281.585 316.356 282.312 315.287C288.228 311.799 293.925 306.549 299.873 302.863C301.631 301.773 304.028 299.498 305.785 298.151C310.511 294.525 315.35 290.939 319.953 287.164C315.161 280.803 310.078 274.919 306.087 268.008Z"/><path fill="#562D22" transform="matrix(4 0 0 4 0 0.00012207)" d="M220.997 320.319C225.752 316.634 232.335 313.761 237.731 310.939C241.314 309.065 246.08 306.152 249.745 304.678C250.897 305.456 252.095 305.8 253.322 306.398C261.006 310.141 268.907 313.773 275.944 318.658C276.733 319.205 278.073 320.29 278.979 320.29L279.04 320.785C276.869 321.776 252.493 350.251 250.265 353.415C242.494 345.243 235.138 335.853 227.626 327.362C225.662 325.142 222.643 322.531 220.997 320.319Z"/><path fill="#723726" transform="matrix(4 0 0 4 0 0.00012207)" d="M185.06 125.129C187.551 121.442 193.684 116.665 197.131 113.379C199.225 111.383 206.061 104.523 207.985 103.358C211.124 101.457 223.057 99.0993 227.024 98.5376C233.694 97.5932 241.876 95.0797 248.309 94.5578C254.058 94.0915 264.567 97.1679 270.56 98.0579C275.314 98.9279 280.08 99.7522 284.841 100.578C286.76 100.911 289.064 102.231 291.021 102.483L292.139 103.414C296.12 106.937 299.938 110.698 303.832 114.326C307.343 117.597 311.789 121.044 314.667 124.839C317.774 130.209 317.896 133.909 320.208 139.287C324.481 136.945 333.877 131.683 338.384 130.516C342.51 132.061 353.184 136.701 354.664 140.638C356.771 146.243 359.92 154.588 361.154 160.309L361.381 161.316C361.996 164.595 357.336 175.325 356.04 179.075C354.333 184.016 352.766 189.836 350.154 194.365C348.524 196.993 337.627 202.546 334.718 203.596C334.824 211.198 337.254 216.639 337.419 222.472C335.096 226.82 331.268 231.675 328.407 235.736C326.152 238.937 324.069 242.247 321.847 245.43C331.315 250.367 348.732 260.431 358.092 266.692C360.622 268.384 366.187 284.813 368.105 287.836C372.772 297.974 376.573 307.269 381.323 317.304C383.107 321.17 384.583 325.634 386.428 329.434L385.761 329.531C376.889 325.793 368.396 317.606 360.303 312.59C352.012 307.452 344.518 302.406 336.714 296.534C332.682 293.5 328.708 291.955 324.526 288.397C323.362 287.676 323.093 287.294 322.215 286.271C321.725 284.407 321.353 270.456 321.204 267.46C320.923 261.814 319.899 253.221 320.002 247.863C316.351 252.817 313.241 258.285 309.545 263.218C308.368 264.789 307.208 266.398 306.087 268.008C303.453 271.522 298.664 279.371 296.004 281.88C298.76 275.958 298.539 271.982 300.011 265.857C301.835 258.263 303.834 250.784 305.154 243.055C305.645 240.182 306.661 237.331 307.1 234.439C307.315 233.104 307.419 232.88 306.812 231.767C305.92 231.313 306.382 231.39 305.373 231.555L305.12 232.441L304.635 232.244C302.097 235.367 293.239 246.802 290.314 248.647C290.043 244.621 288.633 241.95 287.917 238.402C287.045 234.082 282.753 221.11 284.65 217.544C287.641 211.925 296.048 207.085 299.739 202.057L299.941 201.778C302.029 208.373 305.285 222.603 306.134 229.334C310.231 222.221 313.88 214.86 317.059 207.292L316.426 206.689C314.775 206.327 313.143 205.881 311.538 205.353C308.769 204.456 303.173 202.271 300.539 200.796C300.305 199.793 301.041 198.264 301.242 197.248C302.521 190.757 306.629 174.825 303.711 169.097L302.602 168.946C303.468 172.441 301.192 183.329 300.406 187.342C298.777 187.236 293.699 184.175 292.011 183.201C291.202 180.756 288.699 179.214 287.21 177.034C286.657 174.731 282.817 169.333 281.328 167.309L280.677 166.976C276.189 168.091 262.732 171.323 259.036 172.938C257.045 171.215 252.515 166.823 250.239 166.233L250.604 165.592L249.845 165.847C244.8 161.831 243.179 160.024 237.198 157.111C233.633 151.672 220.604 155.14 214.217 152.353C212.02 150.239 212.592 141.305 212.191 137.587L212.155 137.274C212.483 137.022 212.577 136.876 212.853 136.567L212.755 135.982C204.198 131.415 191.726 129.824 185.06 125.129Z"/><path fill="#8B5333" transform="matrix(4 0 0 4 0 0.00012207)" d="M185.06 125.129C187.551 121.442 193.684 116.665 197.131 113.379C199.225 111.383 206.061 104.523 207.985 103.358C211.124 101.457 223.057 99.0993 227.024 98.5376C233.694 97.5932 241.876 95.0797 248.309 94.5578C254.058 94.0915 264.567 97.1679 270.56 98.0579C275.314 98.9279 280.08 99.7522 284.841 100.578C286.76 100.911 289.064 102.231 291.021 102.483C290.159 103.338 289.242 105.744 288.407 106.898C281.091 116.758 274.325 127.298 267.425 137.453C261.656 145.945 255.713 154.316 250.214 163.001C247.082 159.309 243.094 152.019 239.942 147.509L223.579 124.187C219.515 118.433 215.207 112.829 211.873 106.629C210.959 112.957 214.494 132.336 212.755 135.982C204.198 131.415 191.726 129.824 185.06 125.129Z"/><path fill="#8B5333" transform="matrix(4 0 0 4 0 0.00012207)" d="M266.164 153.787C267.363 152.473 269.155 151.307 270.578 150.153C276.116 145.66 282.192 141.815 287.712 137.291C295.884 142.59 303.995 147.438 312.44 152.269C315.565 154.058 318.867 156.473 321.99 158.119L321.69 158.341C317.36 161.514 308.317 164.395 305.221 167.889C306.123 170.041 308.441 174.434 308.992 176.469C309.594 178.691 315.616 195.912 315.442 197.422C314.383 195.823 313.041 189.691 312.481 187.922C311.194 183.867 307.431 171.411 304.797 168.786L304.447 168.718C304.353 169.616 304.448 169.23 304.733 170.049C306.254 174.422 304.499 179.928 304.037 184.393C303.709 187.573 303.244 190.287 302.655 193.377C302.324 194.987 300.937 199.294 300.896 200.366C304.01 202.005 307.438 203.413 310.697 204.732C310.907 204.818 315.533 206.192 315.457 206.191C316.319 204.841 314.448 201.183 313.826 199.766L313.966 199.574C315.308 200.604 316.108 205.257 317.075 206.944L317.059 207.292L316.426 206.689C314.775 206.327 313.143 205.881 311.538 205.353C308.769 204.456 303.173 202.271 300.539 200.796C300.305 199.793 301.041 198.264 301.242 197.248C302.521 190.757 306.629 174.825 303.711 169.097L302.602 168.946C303.468 172.441 301.192 183.329 300.406 187.342C298.777 187.236 293.699 184.175 292.011 183.201C291.202 180.756 288.699 179.214 287.21 177.034C286.657 174.731 282.817 169.333 281.328 167.309L280.677 166.976C276.189 168.091 262.732 171.323 259.036 172.938C257.045 171.215 252.515 166.823 250.239 166.233L250.604 165.592C252.51 163.561 259.661 158.385 262.103 156.945C263.261 155.446 264.568 154.768 266.164 153.787Z"/><path fill="#C79770" transform="matrix(4 0 0 4 0 0.00012207)" d="M285.775 155.864C292.149 160.899 296.046 163.175 302.391 168.957L302.602 168.946C303.468 172.441 301.192 183.329 300.406 187.342C298.777 187.236 293.699 184.175 292.011 183.201C291.202 180.756 288.699 179.214 287.21 177.034C286.657 174.731 282.817 169.333 281.328 167.309L280.677 166.976C281.534 165.028 284.856 157.236 285.775 155.864Z"/><path fill="#DBB085" transform="matrix(4 0 0 4 0 0.00012207)" d="M285.775 155.864C292.149 160.899 296.046 163.175 302.391 168.957C300.557 169.999 285.476 166.974 281.328 167.309L280.677 166.976C281.534 165.028 284.856 157.236 285.775 155.864Z"/><path fill="#ECC699" transform="matrix(4 0 0 4 0 0.00012207)" d="M262.103 156.945C265.605 157.162 284.549 155.122 285.775 155.864C284.856 157.236 281.534 165.028 280.677 166.976C276.189 168.091 262.732 171.323 259.036 172.938C257.045 171.215 252.515 166.823 250.239 166.233L250.604 165.592C252.51 163.561 259.661 158.385 262.103 156.945Z"/><path fill="#B37C56" transform="matrix(4 0 0 4 0 0.00012207)" d="M266.164 153.787C270.578 154.645 281.644 153.401 286.196 152.335C289.868 155.577 302.547 164.755 304.338 167.645C304.168 168.374 304.075 168.459 303.711 169.097L302.602 168.946L302.391 168.957C296.046 163.175 292.149 160.899 285.775 155.864C284.549 155.122 265.605 157.162 262.103 156.945C263.261 155.446 264.568 154.768 266.164 153.787Z"/><path fill="#8B5333" transform="matrix(4 0 0 4 0 0.00012207)" d="M361.381 161.316C361.996 164.595 357.336 175.325 356.04 179.075C354.333 184.016 352.766 189.836 350.154 194.365C348.524 196.993 337.627 202.546 334.718 203.596C334.519 193.325 340.627 176.56 341.317 165.401C348.648 163.87 353.539 162.41 361.071 161.823L361.381 161.316Z"/><path fill="#B37C56" transform="matrix(4 0 0 4 0 0.00012207)" d="M320.208 139.287C324.481 136.945 333.877 131.683 338.384 130.516C342.51 132.061 353.184 136.701 354.664 140.638C356.771 146.243 359.92 154.588 361.154 160.309C360.449 160.107 359.98 159.856 359.423 159.364C354.03 154.606 348.972 149.472 343.377 144.941C341.928 143.767 340.475 142.598 339.15 141.285C335.106 145.219 327.994 151.773 326.068 156.867L322.36 146.037C321.785 144.364 320.495 140.896 320.208 139.287Z"/><path fill="#8B5333" transform="matrix(4 0 0 4 0 0.00012207)" d="M292.139 103.414C296.12 106.937 299.938 110.698 303.832 114.326C307.343 117.597 311.789 121.044 314.667 124.839C311.475 127.923 295.299 132.325 289.775 134.782C289.799 128.906 290.304 122.593 290.758 116.73C290.965 114.06 290.945 105.27 292.139 103.414Z"/><path fill="#562D22" transform="matrix(4 0 0 4 0 0.00012207)" d="M291.021 102.483L292.139 103.414C290.945 105.27 290.965 114.06 290.758 116.73C290.304 122.593 289.799 128.906 289.775 134.782C288.968 135.343 288.192 136.139 287.246 135.849C286.45 133.418 287.936 122.502 287.892 119.388C287.849 116.371 289.855 109.639 288.407 106.898C289.242 105.744 290.159 103.338 291.021 102.483Z"/><path fill="#8B5333" transform="matrix(4 0 0 4 0 0.00012207)" d="M322.215 286.271C324.947 284.411 329.073 282.493 332.074 280.867C338.096 277.602 344.059 274.477 349.848 270.783C351.801 269.536 354.895 266.749 357.024 267.667C357.163 268.04 357.258 268.05 357.086 268.446C355.358 272.429 330.011 281.517 324.526 288.397C323.362 287.676 323.093 287.294 322.215 286.271Z"/><defs><linearGradient id="gradient_1" gradientUnits="userSpaceOnUse" x1="219.39977" y1="331.2095" x2="113.81918" y2="327.83545"><stop offset="0" stop-color="#64341E"/><stop offset="1" stop-color="#4E2B28"/></linearGradient></defs><path fill="url(#gradient_1)" transform="matrix(4 0 0 4 0 0.00012207)" d="M178.134 245.675C179.88 248.357 179.158 254.179 179.023 257.458C178.63 266.992 177.97 276.538 177.614 286.073L178.132 286.043C178.96 285.561 191.447 268.865 193.242 266.602C192.448 265.657 192.035 265.093 191.356 264.061C192.18 264.583 195.083 268.559 195.253 269.539C194.615 268.971 194.451 268.56 194.04 267.821C192.484 271.382 182.433 284.498 179.352 287.494C191.232 295.425 203.367 304.708 214.277 313.964C215.786 315.244 219.688 318.725 220.714 320.241C215.523 324.133 205.634 335.481 200.478 340.655L181.022 360.067C178.699 362.374 173.074 367.589 171.406 369.901C175.763 377.684 182.266 384.292 186.706 392.036C187.027 392.597 187.185 393.354 187.123 393.999L186.789 394.416C158.828 382.794 128.541 356.578 113.108 330.627L114.16 328.328C115.211 325.759 116.089 323.126 117.178 320.57C119.121 316.007 121.364 311.568 123.372 307.032C126.145 300.768 139.334 269.279 141.852 266.689C144.759 263.698 151.831 260.554 155.605 258.376C163.118 254.041 170.239 249.351 178.134 245.675Z"/><path fill="#723726" transform="matrix(4 0 0 4 0 0.00012207)" d="M178.134 245.675C179.88 248.357 179.158 254.179 179.023 257.458C178.63 266.992 177.97 276.538 177.614 286.073C174.561 290.346 168.448 293.164 164.216 296.196C158.696 300.151 153.052 303.906 147.431 307.71L129.783 319.798C126.94 321.753 117.437 328.948 114.16 328.328C115.211 325.759 116.089 323.126 117.178 320.57C119.121 316.007 121.364 311.568 123.372 307.032C126.145 300.768 139.334 269.279 141.852 266.689C144.759 263.698 151.831 260.554 155.605 258.376C163.118 254.041 170.239 249.351 178.134 245.675Z"/><path fill="#723726" transform="matrix(4 0 0 4 0 0.00012207)" d="M178.847 290.872C185.703 294.669 191.952 300.102 198.074 304.998C202.069 308.192 215.414 316.656 216.766 320.774C215.293 322.633 209.272 328.98 207.46 330.331C201.059 335.102 196.649 340.551 191.021 346.079C190.953 346.139 190.885 346.199 190.816 346.259L190.48 346.565C188.137 348.668 186.251 351.292 184.139 353.664C180.313 358.026 176.142 362.072 171.665 365.764C172.81 356.116 172.886 346.848 173.798 337.366C175.295 321.802 177.484 306.479 178.847 290.872Z"/><defs><linearGradient id="gradient_2" gradientUnits="userSpaceOnUse" x1="249.16742" y1="231.29173" x2="249.88838" y2="319.26324"><stop offset="0" stop-color="#5E2917"/><stop offset="1" stop-color="#3B241E"/></linearGradient></defs><path fill="url(#gradient_2)" transform="matrix(4 0 0 4 0 0.00012207)" d="M162.692 220.48C163.078 220.557 163.452 220.617 163.846 220.634L164.012 220.748C164.113 221.386 164.034 221.69 164.692 222.071C167.57 223.736 171.161 224.52 174.13 225.547C179.598 227.436 187.643 229.261 192.731 231.508L193.362 231.303C194.647 231.908 194.551 232.067 194.847 233.444C198.362 233.931 205.676 245.909 208.943 248.187C209.115 248.131 209.287 248.074 209.459 248.018L209.669 247.7C209.707 248.577 209.689 249.89 209.93 250.676C207.545 255.147 207.808 275.413 205.562 278.323C205.966 279.882 206.494 281.287 208.149 280.367C213.175 277.574 218.178 275.71 223.988 275.872C227.689 277.318 232.451 278.463 236.328 279.763C240.823 281.271 245.625 283.215 250.16 284.361C254.132 283.316 258.383 281.564 262.35 280.215C267.833 278.35 272.874 277.791 277.671 274.586C279.578 270.718 281.832 266.862 283.788 262.946C285.612 259.298 287.674 253.992 289.839 250.756C289.956 250.419 290.222 249.066 290.314 248.647C293.239 246.802 302.097 235.367 304.635 232.244L305.12 232.441L305.373 231.555C306.382 231.39 305.92 231.313 306.812 231.767C307.419 232.88 307.315 233.104 307.1 234.439C306.661 237.331 305.645 240.182 305.154 243.055C303.834 250.784 301.835 258.263 300.011 265.857C298.539 271.982 298.76 275.958 296.004 281.88C298.664 279.371 303.453 271.522 306.087 268.008C310.078 274.919 315.161 280.803 319.953 287.164C315.35 290.939 310.511 294.525 305.785 298.151C304.028 299.498 301.631 301.773 299.873 302.863C293.925 306.549 288.228 311.799 282.312 315.287C281.585 316.356 279.202 319.455 278.979 320.29C278.073 320.29 276.733 319.205 275.944 318.658C268.907 313.773 261.006 310.141 253.322 306.398C252.095 305.8 250.897 305.456 249.745 304.678C246.08 306.152 241.314 309.065 237.731 310.939C232.335 313.761 225.752 316.634 220.997 320.319L220.714 320.241C219.688 318.725 215.786 315.244 214.277 313.964C203.367 304.708 191.232 295.425 179.352 287.494C182.433 284.498 192.484 271.382 194.04 267.821C194.451 268.56 194.615 268.971 195.253 269.539C195.083 268.559 192.18 264.583 191.356 264.061C192.035 265.093 192.448 265.657 193.242 266.602C191.447 268.865 178.96 285.561 178.132 286.043L177.614 286.073C177.97 276.538 178.63 266.992 179.023 257.458C179.158 254.179 179.88 248.357 178.134 245.675C173.489 237.737 167.592 230.631 162.9 222.776C162.598 222.272 162.668 221.061 162.692 220.48Z"/><path fill="#562D22" transform="matrix(4 0 0 4 0 0.00012207)" d="M162.692 220.48C163.078 220.557 163.452 220.617 163.846 220.634L164.012 220.748C164.113 221.386 164.034 221.69 164.692 222.071C167.57 223.736 171.161 224.52 174.13 225.547C179.598 227.436 187.643 229.261 192.731 231.508C192.474 237.632 197.566 252.966 198.869 259.779C199.718 264.218 200.322 268.773 201.193 273.21C201.48 274.669 203 279.382 202.91 280.253L202.588 280.308C202.425 280.147 195.445 269.912 195.253 269.539C195.083 268.559 192.18 264.583 191.356 264.061C192.035 265.093 192.448 265.657 193.242 266.602C191.447 268.865 178.96 285.561 178.132 286.043L177.614 286.073C177.97 276.538 178.63 266.992 179.023 257.458C179.158 254.179 179.88 248.357 178.134 245.675C173.489 237.737 167.592 230.631 162.9 222.776C162.598 222.272 162.668 221.061 162.692 220.48Z"/><path fill="#331D14" transform="matrix(4 0 0 4 0 0.00012207)" d="M249.745 304.678C250.426 303.63 252.249 303.005 253.412 302.491C265.638 297.085 277.649 291.187 289.795 285.599C291.618 284.76 293.418 283.885 295.18 282.932C294.296 285.213 292.566 289.739 291.763 291.857C290.338 295.618 282.557 312.293 282.312 315.287C281.585 316.356 279.202 319.455 278.979 320.29C278.073 320.29 276.733 319.205 275.944 318.658C268.907 313.773 261.006 310.141 253.322 306.398C252.095 305.8 250.897 305.456 249.745 304.678Z"/><path fill="#8B5333" transform="matrix(4 0 0 4 0 0.00012207)" d="M290.314 248.647C293.239 246.802 302.097 235.367 304.635 232.244L305.12 232.441C303.941 238.646 301.781 245.03 300.619 250.92C298.741 260.443 297.467 269.385 294.43 278.755C294.37 279.271 293.857 281.149 293.706 281.754C290.344 278.6 282.333 276.238 277.671 274.586C279.578 270.718 281.832 266.862 283.788 262.946C285.612 259.298 287.674 253.992 289.839 250.756C289.956 250.419 290.222 249.066 290.314 248.647Z"/><path fill="#723726" transform="matrix(4 0 0 4 0 0.00012207)" d="M289.839 250.756C290.637 251.239 290.456 251.114 290.794 252.186C291.973 255.926 292.788 276.49 294.43 278.755C294.37 279.271 293.857 281.149 293.706 281.754C290.344 278.6 282.333 276.238 277.671 274.586C279.578 270.718 281.832 266.862 283.788 262.946C285.612 259.298 287.674 253.992 289.839 250.756Z"/><path fill="#8B5333" transform="matrix(4 0 0 4 0 0.00012207)" d="M194.847 233.444C198.362 233.931 205.676 245.909 208.943 248.187C209.115 248.131 209.287 248.074 209.459 248.018L209.669 247.7C209.707 248.577 209.689 249.89 209.93 250.676C207.545 255.147 207.808 275.413 205.562 278.323C203.807 274.759 202.791 268.022 201.931 263.899C199.766 253.509 198.34 243.561 194.847 233.444Z"/><path fill="#562D22" transform="matrix(4 0 0 4 0 0.00012207)" d="M185.06 125.129C191.726 129.824 204.198 131.415 212.755 135.982L212.853 136.567C212.577 136.876 212.483 137.022 212.155 137.274L212.191 137.587C212.592 141.305 212.02 150.239 214.217 152.353C211.718 154.028 209.577 156.218 207.295 157.855C202.661 161.179 199.438 163.372 195.337 167.482L194.723 168.953C192.328 173.158 190.343 177.584 188.794 182.169C186.167 189.894 183.732 201.738 179.121 208.279C178.04 209.813 171.199 214.625 169.313 216.173C168.297 217.007 164.855 220.143 164.012 220.748L163.846 220.634C163.452 220.617 163.078 220.557 162.692 220.48C162.75 217.626 164.904 208.776 165.398 204.447C165.375 204.269 165.177 203.731 165.129 203.702C161.39 201.232 154.118 199.114 151.063 195.993C147.34 191.177 145.618 184.024 143.608 178.35C141.782 173.193 137.555 164.813 139.082 159.65C139.925 155.15 143.771 143.713 145.803 139.463C147.021 136.915 158.691 131.286 161.768 130.677C167.022 131.843 174.449 136.959 179.939 138.944C181.866 133.905 182.658 130.245 185.06 125.129Z"/><defs><linearGradient id="gradient_3" gradientUnits="userSpaceOnUse" x1="168.96379" y1="145.32535" x2="146.23557" y2="194.12741"><stop offset="0" stop-color="#7F472B"/><stop offset="1" stop-color="#9C633E"/></linearGradient></defs><path fill="url(#gradient_3)" transform="matrix(4 0 0 4 0 0.00012207)" d="M139.082 159.65C139.925 155.15 143.771 143.713 145.803 139.463C147.021 136.915 158.691 131.286 161.768 130.677C167.022 131.843 174.449 136.959 179.939 138.944C178.873 143.088 175.84 151.917 174.123 156.052C173.949 156.641 173.666 157.503 173.534 158.077C172.386 163.396 171.829 168.817 170.967 174.184C169.671 182.245 167.837 190.206 166.352 198.232C166.248 198.797 165.799 199.192 165.396 199.553C165.516 200.607 165.764 203.544 165.398 204.447C165.375 204.269 165.177 203.731 165.129 203.702C161.39 201.232 154.118 199.114 151.063 195.993C147.34 191.177 145.618 184.024 143.608 178.35C141.782 173.193 137.555 164.813 139.082 159.65Z"/><path fill="#B37C56" transform="matrix(4 0 0 4 0 0.00012207)" d="M139.082 159.65C139.925 155.15 143.771 143.713 145.803 139.463C147.021 136.915 158.691 131.286 161.768 130.677C167.022 131.843 174.449 136.959 179.939 138.944C178.873 143.088 175.84 151.917 174.123 156.052C169.411 148.764 166.002 146.664 160.62 140.738C157.088 144.55 152.823 148.05 148.965 151.58C146.522 153.816 142.031 158.795 139.082 159.65Z"/><path fill="#723726" transform="matrix(4 0 0 4 0 0.00012207)" d="M160.186 144.623C162.506 146.378 164.127 148.161 166.118 150.175C168.283 152.365 170.998 156.915 173.534 158.077C172.386 163.396 171.829 168.817 170.967 174.184C169.671 182.245 167.837 190.206 166.352 198.232C166.248 198.797 165.799 199.192 165.396 199.553C163.804 189.185 159.484 177.032 158.783 166.262C158.28 158.543 160.453 152.673 160.186 144.623Z"/><path fill="#8B5333" transform="matrix(4 0 0 4 0 0.00012207)" d="M212.155 137.274L212.191 137.587C212.592 141.305 212.02 150.239 214.217 152.353C211.718 154.028 209.577 156.218 207.295 157.855C202.661 161.179 199.438 163.372 195.337 167.482C192.233 166.201 188.711 164.047 185.697 162.519C183.025 161.164 180.36 159.941 177.667 158.635C183.035 155.458 188.403 151.829 193.769 148.596C199.882 144.911 206.286 141.309 212.155 137.274Z"/><path fill="#DBB085" transform="matrix(4 0 0 4 0 0.00012207)" d="M249.71 179.915L250.017 180.043C251.953 181.525 256.855 186.306 258.463 188.231C261.383 192.124 264.288 195.87 267.104 199.863C271.435 206.005 275.757 212.676 280.344 218.596C278.004 219.214 275.09 220.658 272.808 221.635L259.221 227.496C256.731 228.589 252.967 230.32 250.331 230.751C249.687 231.045 249.921 230.814 249.636 231.496L249.324 231.19C248.419 230.484 223.038 219.613 220.714 218.907C220.551 218.354 220.672 218.619 219.918 218.208C221.702 215.194 225.104 210.885 227.226 207.854C231.93 201.134 236.285 194.377 241.7 188.214C243.681 185.784 246.613 183.002 248.888 180.737L249.71 179.915Z"/><defs><linearGradient id="gradient_4" gradientUnits="userSpaceOnUse" x1="243.16251" y1="231.65726" x2="231.14473" y2="186.07581"><stop offset="0" stop-color="#D5A980"/><stop offset="1" stop-color="#F4D7AD"/></linearGradient></defs><path fill="url(#gradient_4)" transform="matrix(4 0 0 4 0 0.00012207)" d="M248.888 180.737C250.361 182.185 249.913 201.518 249.671 204.342C249.594 203.901 249.542 203.638 249.507 203.191L249.27 203.076L249.106 203.564C247.591 203.71 243.22 200.466 241.493 199.602C240.236 202.091 237.145 207.244 237.576 209.738C240.572 214.828 247.262 218.448 247.332 224.573C247.85 226.973 249.103 228.875 249.324 231.19C248.419 230.484 223.038 219.613 220.714 218.907C220.551 218.354 220.672 218.619 219.918 218.208C221.702 215.194 225.104 210.885 227.226 207.854C231.93 201.134 236.285 194.377 241.7 188.214C243.681 185.784 246.613 183.002 248.888 180.737Z"/><path fill="#723726" transform="matrix(4 0 0 4 0 0.00012207)" d="M236.142 218.871C235.741 216.294 234.497 210.879 237.576 209.738C240.572 214.828 247.262 218.448 247.332 224.573C246.865 224.772 246.561 224.86 246.013 224.547C242.743 222.68 239.728 220.118 236.142 218.871Z"/><defs><linearGradient id="gradient_5" gradientUnits="userSpaceOnUse" x1="262.06332" y1="215.7357" x2="237.56203" y2="215.03044"><stop offset="0" stop-color="#F1BF8F"/><stop offset="1" stop-color="#F9E5C3"/></linearGradient></defs><path fill="url(#gradient_5)" transform="matrix(4 0 0 4 0 0.00012207)" d="M249.671 204.342C251.953 204.053 256.38 200.762 258.286 199.294C259.016 200.846 263.016 208.608 262.888 209.626C262.886 209.641 262.875 209.653 262.868 209.667C259.217 213.758 256.006 217.281 252.734 221.749C252.731 222.859 252.734 223.969 252.743 225.079C251.392 227.569 251.225 228.101 250.331 230.751C249.687 231.045 249.921 230.814 249.636 231.496L249.324 231.19C249.103 228.875 247.85 226.973 247.332 224.573C247.262 218.448 240.572 214.828 237.576 209.738C237.145 207.244 240.236 202.091 241.493 199.602C243.22 200.466 247.591 203.71 249.106 203.564L249.27 203.076L249.507 203.191C249.542 203.638 249.594 203.901 249.671 204.342Z"/><path fill="#562D22" transform="matrix(4 0 0 4 0 0.00012207)" d="M262.868 209.667C264.454 211.436 264.365 213.448 264.235 215.711C264.177 216.637 264.087 217.56 263.966 218.479C261.95 219.635 254.008 224.872 252.743 225.079C252.734 223.969 252.731 222.859 252.734 221.749C256.006 217.281 259.217 213.758 262.868 209.667Z"/><defs><linearGradient id="gradient_6" gradientUnits="userSpaceOnUse" x1="161.47723" y1="207.91972" x2="210.89117" y2="196.92093"><stop offset="0" stop-color="#783627"/><stop offset="1" stop-color="#98653B"/></linearGradient></defs><path fill="url(#gradient_6)" transform="matrix(4 0 0 4 0 0.00012207)" d="M194.723 168.953C195.156 171.171 195.097 174.066 195.331 176.449C195.614 179.326 196.275 182.502 196.539 185.25C197.131 191.402 197.604 194.937 199.501 200.867C198.437 201.271 196.227 202.206 195.286 202.757C192.963 204.12 185.154 206.052 183.757 207.64C183.853 210.036 191.922 225.7 193.496 228.782C195.959 219.851 197.157 210.891 199.857 201.4C203.872 206.67 209.33 210.294 213.812 215.119C215.136 216.545 216.512 218.215 216.394 220.258C211.241 221.44 203.612 227.311 198.273 229.278C196.556 229.911 195.411 231.158 193.362 231.303L192.731 231.508C187.643 229.261 179.598 227.436 174.13 225.547C171.161 224.52 167.57 223.736 164.692 222.071C164.034 221.69 164.113 221.386 164.012 220.748C164.855 220.143 168.297 217.007 169.313 216.173C171.199 214.625 178.04 209.813 179.121 208.279C183.732 201.738 186.167 189.894 188.794 182.169C190.343 177.584 192.328 173.158 194.723 168.953Z"/><path fill="#562D22" transform="matrix(4 0 0 4 0 0.00012207)" d="M280.677 166.976L281.328 167.309C282.817 169.333 286.657 174.731 287.21 177.034C288.699 179.214 291.202 180.756 292.011 183.201C291.756 186.39 287.83 193.404 286.541 196.78C285.595 199.255 285.314 199.948 284.675 202.695C278.035 198.311 271.671 193.626 265.033 189.248C264.465 188.874 264.392 188.498 264.219 187.903C263.36 187.641 260.396 187.475 259.452 187.483L258.463 188.231C256.855 186.306 251.953 181.525 250.017 180.043C251.547 177.579 256.592 174.895 259.036 172.938C262.732 171.323 276.189 168.091 280.677 166.976Z"/><path fill="#8B5333" transform="matrix(4 0 0 4 0 0.00012207)" d="M280.677 166.976L281.328 167.309C282.817 169.333 286.657 174.731 287.21 177.034C285.375 176.63 284.181 175.395 282.516 174.586C278.521 172.632 273.357 172.583 269.435 174.728C266.382 176.398 265.032 179.586 263.163 182.362C262.547 183.278 259.593 186.789 259.452 187.483L258.463 188.231C256.855 186.306 251.953 181.525 250.017 180.043C251.547 177.579 256.592 174.895 259.036 172.938C262.732 171.323 276.189 168.091 280.677 166.976Z"/><path fill="#C79770" transform="matrix(4 0 0 4 0 0.00012207)" d="M288.07 182.069C288.4 182.285 288.735 182.495 289.072 182.698C290.282 183.424 290.631 183.542 292.011 183.201C291.756 186.39 287.83 193.404 286.541 196.78C285.595 199.255 285.314 199.948 284.675 202.695C278.035 198.311 271.671 193.626 265.033 189.248C264.465 188.874 264.392 188.498 264.219 187.903C268.287 188.47 272.642 189.011 276.751 189.017C282.13 189.025 285.184 186.257 288.07 182.069Z"/><path fill="#331D14" transform="matrix(4 0 0 4 0 0.00012207)" d="M269.193 179.194L269.788 179.702C270.259 180.957 272.391 186.015 272.028 186.894C270.993 187.085 270.247 186.822 269.212 186.595C267.575 185.801 266.939 185.485 265.201 184.991C266.242 182.44 267.121 180.994 269.193 179.194Z"/><path fill="#ECC699" transform="matrix(4 0 0 4 0 0.00012207)" d="M280.344 218.596L281.06 219.929C277.013 223.587 270.767 246.852 267.825 252.578C267.708 252.806 265.682 252.771 265.469 252.768C261.601 252.819 254.393 251.632 249.971 251.299C249.813 247.209 249.752 243.115 249.79 239.021C249.792 237.109 249.92 233.265 249.636 231.496C249.921 230.814 249.687 231.045 250.331 230.751C252.967 230.32 256.731 228.589 259.221 227.496L272.808 221.635C275.09 220.658 278.004 219.214 280.344 218.596Z"/><path fill="#F4DAB5" transform="matrix(4 0 0 4 0 0.00012207)" d="M231.977 253.119C231.576 251.288 229.732 246.616 229.496 245.344C228.903 242.152 219.794 220.325 220.112 219.178L220.714 218.907C223.038 219.613 248.419 230.484 249.324 231.19L249.636 231.496C249.92 233.265 249.792 237.109 249.79 239.021C249.752 243.115 249.813 247.209 249.971 251.299C243.314 251.977 238.84 252.787 231.977 253.119Z"/><path fill="#562D22" transform="matrix(4 0 0 4 0 0.00012207)" d="M218.297 167.308L219.594 167.091C226.211 169.078 233.602 170.551 240.283 172.572C244.416 174.91 245.549 176.263 249.137 179.007L249.71 179.915L248.888 180.737C246.613 183.002 243.681 185.784 241.7 188.214C240.558 187.224 240.299 187.429 238.689 187.501L233.973 188.158C226.2 189.235 216.617 190.993 212.313 182.291C210.71 182.726 209.191 183.016 207.563 183.339C209.007 180.759 210.753 179.464 212.732 177.306C213.157 175.859 217.315 168.627 218.297 167.308Z"/><path fill="#8B5333" transform="matrix(4 0 0 4 0 0.00012207)" d="M218.297 167.308L219.594 167.091C226.211 169.078 233.602 170.551 240.283 172.572C244.416 174.91 245.549 176.263 249.137 179.007L249.71 179.915L248.888 180.737C246.613 183.002 243.681 185.784 241.7 188.214C240.558 187.224 240.299 187.429 238.689 187.501L240.078 187.121L240.219 186.793C237.471 182.946 233.345 175.691 229.455 173.906C225.537 172.584 220.629 172.815 216.989 174.862C215.45 175.728 214.211 176.878 212.732 177.306C213.157 175.859 217.315 168.627 218.297 167.308Z"/><path fill="#331D14" transform="matrix(4 0 0 4 0 0.00012207)" d="M218.033 176.595L218.504 176.748C219.336 177.993 218.492 180.594 218.777 181.327C219.343 182.778 220.754 184.635 221.408 186.307L221.165 186.651C220.431 186.73 220.072 186.515 219.385 186.248C215.547 182.453 210.678 181.789 218.033 176.595Z"/><path fill="#331D14" transform="matrix(4 0 0 4 0 0.00012207)" d="M230.497 178.392C231.742 179.046 234.757 182.567 234.696 183.974C233.458 184.721 232.721 185.271 231.576 186.14C230.798 186.804 229.555 187.644 228.728 186.749C228.328 184.841 229.717 180.237 230.497 178.392Z"/><path fill="#C79770" transform="matrix(4 0 0 4 0 0.00012207)" d="M197.274 169.163C200.42 169.956 213.182 166.853 218.297 167.308C217.315 168.627 213.157 175.859 212.732 177.306C210.753 179.464 209.007 180.759 207.563 183.339C209.191 183.016 210.71 182.726 212.313 182.291C216.617 190.993 226.2 189.235 233.973 188.158L235.601 188.313C235.646 188.454 235.805 188.718 235.594 188.856C228.776 193.288 222.378 198.246 215.462 202.644C214.949 201.536 213.831 198.361 213.265 196.971C211.459 192.537 209.352 187.902 207.775 183.433C205.53 184.687 202.06 186.811 199.631 187.212C199.163 183.79 196.201 171.333 197.274 169.163Z"/><path fill="#F4DAB5" transform="matrix(4 0 0 4 0 0.00012207)" d="M217.126 155.726C222.964 155.908 231.937 157.217 237.198 157.111C243.179 160.024 244.8 161.831 249.845 165.847C246.636 167.769 243.129 171.192 240.283 172.572C233.602 170.551 226.211 169.078 219.594 167.091L219.318 166.975C218.523 165.958 215.244 157.581 214.908 156.045C215.47 155.665 216.339 155.762 217.126 155.726Z"/><path fill="#ECC699" transform="matrix(4 0 0 4 0 0.00012207)" d="M219.918 218.208C220.672 218.619 220.551 218.354 220.714 218.907L220.112 219.178C219.794 220.325 228.903 242.152 229.496 245.344C229.732 246.616 231.576 251.288 231.977 253.119C223.689 254.868 219.588 250.78 212.739 248.263L212.3 248.104C214.408 240.244 215.738 232.736 217.888 224.943C218.419 223.02 219.178 219.952 219.918 218.208Z"/><path fill="#DBB085" transform="matrix(4 0 0 4 0 0.00012207)" d="M281.06 219.929C280.993 220.981 287.074 246.193 287.844 248.287C278.694 250.143 277.461 255.682 265.469 252.768C265.682 252.771 267.708 252.806 267.825 252.578C270.767 246.852 277.013 223.587 281.06 219.929Z"/><path fill="#723726" transform="matrix(4 0 0 4 0 0.00012207)" d="M193.362 231.303C195.411 231.158 196.556 229.911 198.273 229.278C203.612 227.311 211.241 221.44 216.394 220.258C214.639 227.853 213.268 235.359 210.783 242.775C210.257 244.345 209.872 246.053 209.669 247.7L209.459 248.018C209.287 248.074 209.115 248.131 208.943 248.187C205.676 245.909 198.362 233.931 194.847 233.444C194.551 232.067 194.647 231.908 193.362 231.303Z"/><path fill="#723726" transform="matrix(4 0 0 4 0 0.00012207)" d="M209.93 250.676C213.677 255.038 219.952 273.375 223.988 275.872C218.178 275.71 213.175 277.574 208.149 280.367C206.494 281.287 205.966 279.882 205.562 278.323C207.808 275.413 207.545 255.147 209.93 250.676Z"/><path fill="#DBB085" transform="matrix(4 0 0 4 0 0.00012207)" d="M292.011 183.201C293.699 184.175 298.777 187.236 300.406 187.342C298.315 202.196 300.819 196.99 290.379 206.961C288.556 205.452 286.666 203.98 284.675 202.695C285.314 199.948 285.595 199.255 286.541 196.78C287.83 193.404 291.756 186.39 292.011 183.201Z"/><path fill="#DBB085" transform="matrix(4 0 0 4 0 0.00012207)" d="M207.775 183.433C209.352 187.902 211.459 192.537 213.265 196.971C213.831 198.361 214.949 201.536 215.462 202.644C213.728 203.563 211.168 205.594 209.336 206.813C206.853 204.781 203.298 201.454 201.014 199.181C200.438 196.336 199.967 190.317 199.631 187.212C202.06 186.811 205.53 184.687 207.775 183.433Z"/><path fill="#ECC699" transform="matrix(4 0 0 4 0 0.00012207)" d="M197.274 169.163C200.898 165.373 208.314 160.097 212.582 156.855C214.536 155.371 214.882 155.338 217.126 155.726C216.339 155.762 215.47 155.665 214.908 156.045C215.244 157.581 218.523 165.958 219.318 166.975L219.594 167.091L218.297 167.308C213.182 166.853 200.42 169.956 197.274 169.163Z"/><path fill="#ECC699" transform="matrix(4 0 0 4 0 0.00012207)" d="M225.44 273.089C222.834 271.364 215.438 255.819 213.911 252.108C213.927 251.953 213.944 251.798 213.961 251.643C216.415 252.478 219.516 255.45 222.705 255.712C232.07 256.478 241.295 254.433 250.608 254.186C258.419 254.276 267.473 256.683 275.862 255.99C279.792 255.665 283.45 252.594 285.215 252.875C285.8 254.791 276.286 271.666 274.39 273.116C269.462 276.725 262.323 277.865 256.527 279.366C254.541 279.88 251.545 281.162 249.663 281.345C248.093 281.27 245.443 280.216 243.863 279.672C238.081 277.683 230.542 276.425 225.44 273.089Z"/><path fill="#C79770" transform="matrix(4 0 0 4 0 0.00012207)" d="M249.815 258.215C251.431 257.795 254.185 260.336 255.807 261.333C261.165 264.624 269.94 268.671 274.39 273.116C269.462 276.725 262.323 277.865 256.527 279.366C254.541 279.88 251.545 281.162 249.663 281.345C250.339 273.653 249.818 265.919 249.815 258.215Z"/><path fill="#DBB085" transform="matrix(4 0 0 4 0 0.00012207)" d="M225.44 273.089C226.766 272.411 229.633 270.2 231.287 269.204C235.159 266.873 239.055 264.564 242.984 262.312C244.793 261.276 248.033 258.722 249.815 258.215C249.818 265.919 250.339 273.653 249.663 281.345C248.093 281.27 245.443 280.216 243.863 279.672C238.081 277.683 230.542 276.425 225.44 273.089Z"/><path fill="#C79770" transform="matrix(4 0 0 4 0 0.00012207)" d="M265.369 192.428C266.193 192.777 269.32 194.942 270.288 195.598L279.913 202.146C282.807 204.156 286.143 206.756 289.354 208.054C287.634 209.51 286.914 210.19 285.493 211.904C284.371 213.351 283.276 214.819 282.209 216.307C279.536 212.274 266.016 195.672 265.369 192.428Z"/><path fill="#C79770" transform="matrix(4 0 0 4 0 0.00012207)" d="M233.476 192.66C234.002 192.954 233.778 192.748 234.025 193.425C233.551 194.863 224.463 206.769 222.966 208.95C221.202 211.52 219.374 214.322 217.834 217.278C217.08 215.804 216.507 214.928 215.589 213.544C214.195 211.802 212.778 210.172 211.382 208.395C212.128 207.634 216.037 205.108 217.063 204.378C222.203 200.725 228.583 197.009 233.257 192.858L233.476 192.66Z"/><path transform="matrix(4 0 0 4 0 0.00012207)" d="M379.695 373.157C391.106 372.124 401.188 380.55 402.197 391.963C403.206 403.376 394.759 413.44 383.344 414.425C371.963 415.407 361.935 406.99 360.929 395.611C359.923 384.233 368.318 374.187 379.695 373.157Z"/><path fill="white" transform="matrix(4 0 0 4 0 0.00012207)" d="M378.886 380.07C392.329 378.679 404.985 400.9 384.812 407.582C374.316 409.332 362.508 394.279 370.189 385.188C372.752 382.155 374.933 380.639 378.886 380.07Z"/><path transform="matrix(4 0 0 4 0 0.00012207)" d="M151.901 395.83C157.42 398.771 164.056 402.142 168.914 405.955C178.691 413.628 176.183 426.527 168.765 434.893C165.098 439.03 161.657 440.591 156.145 440.885C145.839 440.583 141.082 435.176 132.433 431.205L132.095 431.052C134.628 427.098 137.024 422.38 139.345 418.274C143.549 410.841 147.565 403.185 151.901 395.83Z"/><path fill="white" transform="matrix(4 0 0 4 0 0.00012207)" d="M155.118 404.805C158.251 406.481 161.072 407.993 163.99 410.185C170.903 415.271 167.651 424.776 162.975 430.125C160.611 432.829 158.519 434.293 154.879 434.546C152.097 434.459 143.806 431.016 142.151 428.915C142.772 427.076 145.21 422.972 146.186 421.156C149.098 415.732 152.361 410.299 155.118 404.805Z"/><path transform="matrix(4 0 0 4 0 0.00012207)" d="M105.312 348.177C105.657 348.568 108.355 352.116 108.784 352.699C112.297 357.533 117.185 361.877 118.788 367.808C120.31 373.436 115.953 378.403 110.709 379.726C108.353 380.32 106.264 379.271 104.343 377.98C104.849 383.588 105.219 387.837 99.2522 391.017C96.3698 392.554 94.5225 392.778 91.4353 391.875C84.7094 389.314 78.3176 379.164 73.7565 373.294C79.6341 369.019 86.1317 363.406 92.0206 358.909C95.2694 356.428 102.809 350.677 105.312 348.177Z"/><path fill="white" transform="matrix(4 0 0 4 0 0.00012207)" d="M92.1077 368.2C93.2384 368.602 95.3557 372.233 96.3302 373.203C101.401 378.251 99.538 386.266 91.0508 384.446C88.6247 383.12 84.847 377.738 82.9322 375.318C86.0599 373.036 89.1198 370.662 92.1077 368.2Z"/><path fill="white" transform="matrix(4 0 0 4 0 0.00012207)" d="M105.167 358.058C106.304 358.802 110.585 364.289 111.136 365.843C111.379 366.526 111.692 367.598 111.873 368.351C111.591 369.427 111.214 370.408 110.838 371.452C108.693 373.213 107.134 374.518 104.257 373.3C101.264 370.894 98.9562 367.673 96.5868 364.634C99.4055 362.389 102.266 360.196 105.167 358.058Z"/><path transform="matrix(4 0 0 4 0 0.00012207)" d="M74.2646 246.996L74.4369 247.034C75.2532 247.793 75.8266 253.131 76.1197 254.756C68.3922 256.954 60.8061 260.162 53.2305 262.842C50.5723 263.782 47.8596 264.704 45.3335 265.958C52.8159 266.057 61.4707 268.579 69.1197 269.049C71.9766 269.225 75.1959 270.058 78.1769 270.329C78.2908 272.954 78.4773 275.873 78.7999 278.465C76.679 278.966 72.3757 280.825 70.1903 281.705L56.6074 287.083C53.8899 288.177 51.3178 289.43 48.5358 290.333C52.5897 290.929 56.9127 291.594 60.9972 291.802C67.7447 292.145 74.2946 293.03 81.0017 293.791C81.123 295.964 81.3774 299.371 81.7814 301.44C80.2818 301.151 79.0694 300.997 77.5584 300.818C65.3497 299.47 52.8198 297.427 40.4474 295.954C40.0937 293.364 39.9045 289.651 39.6893 286.971C42.2965 285.76 45.7153 284.499 48.4405 283.391C55.0034 280.757 61.5429 278.065 68.0581 275.315C58.0717 274.429 47.3441 272.255 37.3193 270.901C37.25 268.337 36.6623 264.877 36.2974 262.271C37.5813 261.987 44.2078 259.167 45.9912 258.426C55.3035 254.556 65.0349 250.943 74.2646 246.996Z"/><path transform="matrix(4 0 0 4 0 0.00012207)" d="M433.173 250.313C440.304 249.435 443.75 252.644 446.399 258.783C451.748 256.35 458.328 253.941 463.852 251.603C463.494 253.918 463.316 257.546 463.116 260.003C460.488 261.248 449.311 265.735 446.774 266.245C446.735 268.278 446.6 270.443 446.509 272.485C449.661 272.51 454.269 272.891 457.44 273.207C459.079 273.34 460.72 273.457 462.361 273.558L461.925 281.224C448.056 279.709 435.29 279.294 421.556 278.357C421.78 273.735 422.067 269.154 422.486 264.548C423.156 257.186 424.948 251.66 433.173 250.313Z"/><path fill="white" transform="matrix(4 0 0 4 0 0.00012207)" d="M434.448 257.593C443.272 257.46 441.357 266.369 440.671 272.272L435.956 271.894C433.386 271.695 430.818 271.466 428.252 271.207C428.353 266.174 427.793 258.174 434.448 257.593Z"/><path transform="matrix(4 0 0 4 0 0.00012207)" d="M408.882 334.071C418.934 334.38 424.927 342.911 420.415 352.325C419.093 355.083 416.913 358.288 415.241 360.901C419.679 363.761 424.123 366.418 428.584 369.216C427.327 371.362 425.61 373.329 424.769 375.617C423.603 374.64 421.093 373.241 419.7 372.41L400.764 360.758C397.458 358.721 393.642 356.232 390.287 354.374C393.311 349.677 396.115 344.532 399.291 340.036C401.843 336.423 404.541 334.697 408.882 334.071Z"/><path fill="white" transform="matrix(4 0 0 4 0 0.00012207)" d="M407.136 341.338C412.284 341.068 416.647 344.166 414.948 349.63C414.633 350.645 410.601 357.288 409.918 357.639L408.854 357.019C405.728 355.135 402.514 353.142 399.339 351.367C401.035 348.366 403.955 342.407 407.136 341.338Z"/><path transform="matrix(4 0 0 4 0 0.00012207)" d="M194.954 416.816C198.832 417.932 203.072 418.982 207 420.024C210.95 421.072 216.407 422.772 220.261 423.404C219.497 425.805 219.34 426.668 219.123 429.139C212.633 427.731 206.718 425.934 200.267 424.555C199.457 428.723 198.812 431.273 197.589 435.275C201.463 435.85 209.829 438.324 214.488 439.258C213.947 441.555 213.524 442.919 212.726 445.145C209.35 444.041 205.854 443.233 202.41 442.345C201.076 442.001 197.634 440.796 196.49 440.69L196.194 441.098C194.932 444.354 194.873 447.7 193.237 451.734C195.8 452.706 198.061 453.101 200.659 453.815C204.606 454.899 207.946 455.955 212.019 456.621C211.195 458.536 210.461 460.663 210.069 462.713C203.34 460.343 196.539 458.982 189.665 457.145C187.962 456.69 186.528 456.226 184.752 456.144L192.19 427.116C193.13 423.535 193.847 420.378 194.954 416.816Z"/><path transform="matrix(4 0 0 4 0 0.00012207)" d="M86.9128 312.315L87.3208 312.366C89.4702 317.292 91.6597 322.2 93.8893 327.09C95.1342 329.82 96.7198 333.553 98.1835 336.089C96.2017 337.12 94.3343 337.798 92.2578 338.594C90.6102 332.914 86.9481 326.722 84.7529 321.282C81.3745 322.82 78.0038 324.375 74.6409 325.946C75.6483 327.515 76.9443 330.806 77.7796 332.607C79.0853 335.422 80.6647 338.501 81.6523 341.412C80.0506 342.203 78.353 343.184 76.776 344.055C75.2306 340.857 70.398 330.994 69.5975 328.154C66.9535 329.142 61.7872 331.761 59.1341 333.109C59.8564 335.102 65.7556 348.7 66.6253 349.994C64.908 350.993 63.2383 351.871 61.4776 352.793C57.8746 345.1 54.1178 336.075 50.2645 328.801C54.3212 327.214 59.1689 324.823 63.1728 322.984C71.0396 319.325 78.9536 315.768 86.9128 312.315Z"/><path transform="matrix(4 0 0 4 0 0.00012207)" d="M418.937 292.197C420.701 292.94 422.38 293.719 424.278 293.926C422.924 300.032 420.606 306.163 418.586 312.104C421.816 313.295 425.971 314.47 429.352 315.602C430.703 309.801 432.937 304.651 434.6 299.144C436.692 299.961 437.885 300.31 440.058 300.792C438.025 305.407 436.698 312.139 434.473 317.434C437.677 318.088 442.241 319.775 445.778 320.707C447.265 316.27 449.059 310.828 450.34 306.425C450.813 305.242 451.197 304.087 451.606 302.883C453.68 303.476 454.996 303.921 456.997 304.724C455.495 310.751 453.108 316.545 451.378 322.527C450.711 324.832 449.7 327.313 449.335 329.667C448.092 329.193 446.65 328.769 445.363 328.389C436.466 325.755 427.721 322.672 418.858 319.937C416.103 319.087 413.27 318.011 410.425 317.594C411.533 315.329 412.215 312.699 413.072 310.317C415.184 304.444 416.794 298.014 418.937 292.197Z"/><path transform="matrix(4 0 0 4 0 0.00012207)" d="M305.476 416.831L306.389 416.711C307.424 417.337 307.848 420.31 308.401 421.984C302.66 424.019 295.841 424.951 289.977 426.953C291.246 431.009 291.898 433.512 292.723 437.614C297.045 436.071 305.721 434.837 309.436 433.153C309.815 434.848 310.519 436.87 311.059 438.557C309.23 439.211 295.573 442.988 294.14 443.091C295.583 447.378 296.247 449.819 297.122 454.179C301.682 453.252 306.563 451.935 311.087 450.789L315.342 449.547C315.906 451.6 316.594 453.552 317.282 455.563C314.235 455.965 309.551 457.287 306.412 458.09C301.893 459.247 296.135 460.44 291.893 462.151C290.959 459.473 290.512 457.324 289.783 454.627L285.264 437.494C284.063 432.76 282.926 427.713 281.288 423.151C282.684 422.714 284.151 422.302 285.577 421.974C292.09 420.476 298.903 417.937 305.476 416.831Z"/><path transform="matrix(4 0 0 4 0 0.00012207)" d="M261.936 425.276C263.425 425.509 268.063 425.46 269.599 425.307C268.312 429.727 266.416 433.894 264.986 438.254C261.973 447.438 257.941 456.529 255.162 465.767L246.037 465.749C245.415 464.373 244.875 462.916 244.384 461.488C241.649 453.53 238.602 445.698 235.743 437.784C234.288 433.677 232.501 429.55 231.162 425.509C233.694 425.419 236.597 425.465 239.158 425.454L246.6 446.797C247.928 450.613 249.195 454.642 250.746 458.354C251.17 455.165 253.781 448.892 254.86 445.732C256.494 441.03 258.138 436.322 259.747 431.611C260.431 429.606 261.569 427.304 261.936 425.276Z"/><path transform="matrix(4 0 0 4 0 0.00012207)" d="M326.644 407.764C327.616 408.151 341.294 434.763 342.986 438.029C344.185 437.23 347.051 435.838 348.433 435.101C351.849 433.28 355.254 431.439 358.648 429.578C359.76 431.428 360.503 432.706 361.414 434.649C359.32 435.977 356.911 437.131 354.688 438.262C350.037 440.669 343.652 443.906 339.22 446.437C333.154 435.003 326.65 422.098 320.296 410.966C322.573 409.721 324.282 408.852 326.644 407.764Z"/><path transform="matrix(4 0 0 4 0 0.00012207)" d="M326.864 45.6643C331.951 44.9098 336.688 48.4178 337.449 53.5035C338.21 58.5892 334.709 63.3306 329.624 64.0989C324.53 64.8686 319.777 61.3588 319.014 56.2634C318.252 51.1679 321.768 46.4202 326.864 45.6643Z"/><path fill="white" transform="matrix(4 0 0 4 0 0.00012207)" d="M326.764 48.5047C331.244 48.3448 332.601 49.1822 334.202 53.4205C333.764 57.0384 332.906 59.6336 329.429 61.2697C321.442 62.4446 319.387 52.8384 326.764 48.5047Z"/><path transform="matrix(4 0 0 4 0 0.00012207)" d="M238.123 30.6175C246.305 31.127 254.522 28.5798 253.29 41.8939C253.123 43.6927 252.309 44.968 251.156 46.3224C247.321 49.4385 243.101 48.3682 238.195 48.7114C238.167 44.8738 237.652 33.7787 238.123 30.6175Z"/><path fill="white" transform="matrix(4 0 0 4 0 0.00012207)" d="M243.653 33.3591C248.11 33.4498 250.322 34.7992 250.358 40.1067C250.371 42.0225 249.188 43.7735 247.755 45.0332C245.529 45.9375 244.066 45.95 241.714 46.0143C241.524 44.0535 241.229 35.3824 241.53 33.7033C242.063 33.2728 242.905 33.3784 243.653 33.3591Z"/><path transform="matrix(4 0 0 4 0 0.00012207)" d="M279.042 32.1442C280.344 32.447 281.89 32.6498 283.226 32.862C283.747 35.7234 285.749 41.9887 286.587 45.2705C289.223 41.5957 291.465 39.2039 294.097 35.1241C295.625 35.3148 296.952 35.4273 298.489 35.5305C297.185 41.529 296.386 47.551 295.032 53.4175L291.93 53.1359C291.998 50.6944 292.358 48.7983 292.912 46.4407C293.337 44.6438 293.653 42.5786 293.974 40.7388C288.26 47.4862 285.684 55.4508 282.639 41.9018C282.427 40.9569 281.762 39.4168 281.391 38.4916C281.251 42.0828 279.89 46.9156 279.017 50.5361L275.997 50.1543C276.623 48.0363 276.964 44.7972 277.35 42.5235C277.894 39.3287 279.003 35.2979 279.042 32.1442Z"/><path transform="matrix(4 0 0 4 0 0.00012207)" d="M203.509 35.3413L206.77 35.1891C209.579 40.2029 213.622 46.2642 216.752 51.1875C215.697 51.2883 214.461 51.564 213.395 51.7527C211.939 50.7417 212.449 48.3929 210.389 48.3656C208.046 48.6222 206.141 49.064 203.848 49.5947C203.647 51.2456 203.564 52.4343 203.503 54.0982L199.994 54.9092C201.242 49.0193 201.421 42.9818 202.512 37.0886C202.731 35.9074 202.749 35.8204 203.509 35.3413Z"/><path fill="white" transform="matrix(4 0 0 4 0 0.00012207)" d="M205.412 39.35C206.251 40.1599 209.42 44.9755 209.176 46.1122L208.46 46.2261C207.104 46.4338 205.746 46.6255 204.386 46.8011C204.536 44.6718 205.132 41.6136 205.412 39.35Z"/><path transform="matrix(4 0 0 4 0 0.00012207)" d="M172.888 44.2337L173.169 44.6283C172.751 46.3764 170.669 51.9031 169.862 53.5318C172.243 54.8659 178.27 59.3673 180.752 61.1149C178.893 61.6303 178.503 61.6473 176.75 62.5692C174.815 61.2438 170.823 57.8034 168.902 57.4921C167.015 58.4033 169.294 62.9339 169.914 64.4536C170.14 64.8712 170.072 64.6367 169.945 65.216C169.245 65.5676 167.755 66.3631 167.065 65.8968C165.146 60.5696 162.22 55.243 160.272 49.7235C161.149 49.2917 162.398 48.8087 163.325 48.4165C164.404 50.6632 165.326 53.1592 166.241 55.4912C167.069 52.3611 168.354 49.1151 169.397 46.0063C170.636 45.4847 171.71 44.873 172.888 44.2337Z"/></svg>